<?xml version="1.0" encoding="utf-8"?>
<!-- Generator: Adobe Illustrator 15.0.2, SVG Export Plug-In . SVG Version: 6.00 Build 0)  -->
<!DOCTYPE svg PUBLIC "-//W3C//DTD SVG 1.1//EN" "http://www.w3.org/Graphics/SVG/1.1/DTD/svg11.dtd">
<svg version="1.1" id="Layer_1_xA0_Image_1_" xmlns="http://www.w3.org/2000/svg" xmlns:xlink="http://www.w3.org/1999/xlink"
	 x="0px" y="0px" width="430.486px" height="430.445px" viewBox="0 0 430.486 430.445" enable-background="new 0 0 430.486 430.445"
	 xml:space="preserve">
<g>
	<g>
		<path fill-rule="evenodd" clip-rule="evenodd" fill="#353535" d="M200.4,0c7.28,0,14.56,0,21.84,0
			c5.062,0.214,10.912,0.48,16.56,0.48c5.577,0,11.51-0.695,15.84,0.96c0.575,3.698-1.907,6.417-2.88,9.6
			c-2.937,9.617-2.101,24.504,1.2,34.08c4.317,12.524,13.314,21.956,24.72,26.64c13.867,5.695,31.084,1.532,41.28-4.32
			c7.431-4.264,13.981-11.699,18.72-19.92c1.46-2.533,3.242-7.208,5.28-7.44c2.983-0.341,5.523,4.113,6.96,5.76
			c11.837,13.569,25.024,24.347,37.68,37.68c1.639,1.726,5.506,4.769,5.04,7.44c-0.338,1.941-5.499,3.786-7.92,5.04
			c-8.239,4.268-15.669,10.947-20.16,18c-6.111,9.598-10.508,26.566-5.279,41.04c6.278,17.38,23.725,28.692,48.239,28.56
			c4.16-0.022,7.938-0.359,11.521-1.2c3.185-0.748,6.28-2.866,10.08-2.16c2.172,4.637,1.151,11.166,0.96,17.28
			c-0.381,12.145,0.832,24.669,0.24,37.2c-0.278,5.893,0.115,11.862-1.681,16.801c-7.451-1.162-13.036-3.801-21.12-4.08
			c-24.799-0.857-41.598,11.196-48,29.04c-9.559,26.642,7.03,49.57,24.961,59.04c2.496,1.318,7.407,2.995,7.68,5.039
			c0.34,2.549-3.741,5.901-5.521,7.681c-13.385,13.384-26.447,25.022-39.6,38.88c-1.508,1.589-4.219,6.096-7.44,5.52
			c-2.682-0.479-3.55-6.409-4.8-8.88c-4.989-9.865-15.127-18.287-25.439-23.279c-11.388-5.514-27.836-6.056-39.36,0.239
			c-14.619,7.986-25.447,25.004-23.28,49.2c0.34,3.796,0.812,7.258,1.681,10.561c0.779,2.963,2.505,5.773,2.399,9.119
			c-2.646,1.289-5.863,0.721-8.88,0.721c-15.317,0-31.281-0.24-47.04-0.24c-6.18,0-12.365,0.286-17.52-1.44
			c2.041-7.291,4.482-13.162,4.8-21.119c1.018-25.459-10.712-42.96-28.32-49.44c-13.875-5.106-32.643-1.139-42,5.04
			c-6.734,4.447-13.597,12.58-18,20.88c-1.323,2.495-2.893,7.65-5.04,7.92c-2.528,0.317-5.144-4.079-6.96-6
			c-13.815-14.613-27.714-27.383-41.76-42.24c-0.9-0.951-2.474-2.851-2.4-3.84c0.194-2.604,5.546-3.714,7.92-5.04
			c7.918-4.421,15.238-11.625,19.68-18.72c6.19-9.886,10.104-26.714,4.56-40.8c-6.723-17.081-23.66-29.011-48.48-28.32
			c-3.645,0.102-7.449,0.524-11.28,1.44c-3.274,0.782-7.515,3.676-10.08,1.68c0-15.2,0-30.4,0-45.6c0.17-6.486,0.811-14.46,0-20.4
			c0-1.44,0-2.88,0-4.32c0.763-3.617,5.373-1.218,7.2-0.479c14.107,5.7,33.641,1.8,44.4-3.84
			c10.369-5.435,17.771-14.491,20.88-27.12c3.805-15.457-2.085-28.881-8.16-37.44c-4.611-6.498-11.106-12.923-18.96-17.04
			c-2.458-1.289-6.806-3.049-6.96-5.04c-0.214-2.765,3.798-5.131,5.52-6.72C57.053,69.96,67.799,57.753,80.88,45.6
			c1.633-1.517,5.074-5.664,7.2-5.28c2.292,0.414,3.749,6.077,5.04,8.16c5.528,8.917,15.486,16.364,25.44,20.64
			c11.568,4.969,27.662,3.601,37.68-1.92c13.846-7.63,23.552-24.798,22.8-46.56c-0.239-6.92-2.575-12.662-3.6-19.68
			C182.943-0.672,192.582,0.987,200.4,0z M159.6,161.28c-12.197,12.197-23.226,30.568-22.08,55.201
			c1.139,24.492,11.13,39.877,23.52,53.52c12.337,13.585,29.81,22.32,54.96,22.32c22.93-0.001,41.859-9.947,54.24-22.8
			c13.043-13.542,22.08-29.655,22.08-55.2c-0.001-25.022-10.068-41.286-23.04-54c-12.312-12.066-30.84-23.24-55.2-22.08
			C188.517,139.457,172.858,148.021,159.6,161.28z"/>
	</g>
</g>
</svg>
