<?xml version="1.0" encoding="utf-8"?>
<!-- Generator: Adobe Illustrator 15.0.2, SVG Export Plug-In . SVG Version: 6.00 Build 0)  -->
<!DOCTYPE svg PUBLIC "-//W3C//DTD SVG 1.1//EN" "http://www.w3.org/Graphics/SVG/1.1/DTD/svg11.dtd">
<svg version="1.1" id="Layer_1" xmlns="http://www.w3.org/2000/svg" xmlns:xlink="http://www.w3.org/1999/xlink" x="0px" y="0px"
	 width="64.638px" height="64.764px" viewBox="0 0 64.638 64.764" enable-background="new 0 0 64.638 64.764" xml:space="preserve">
<g>
	<g>
		<path fill="#646464" d="M36.746,64.764c-1.347,0-2.654-0.036-3.963-0.072c-1.308-0.035-2.609-0.071-3.948-0.071
			c-0.548,0-1.103,0.006-1.664,0.021c-0.001,0-0.003,0-0.004,0c-0.101,0-0.274-0.087-0.331-0.166
			c-0.08-0.114-0.096-0.254-0.047-0.379c1.088-2.773,0.868-5.727-0.59-7.896c-1.156-1.724-2.947-2.688-5.043-2.72H21.04
			c-4.182,0-6.227,3.234-7.074,5.162c-0.035,0.079-0.164,0.194-0.246,0.222c-0.041,0.012-0.08,0.018-0.12,0.018
			c-0.059,0-0.171-0.033-0.22-0.065c-1.14-0.727-2.222-1.825-3.269-2.89l-0.918-0.926c-1.152-1.15-2.347-2.342-3.345-3.589
			c-0.058-0.072-0.099-0.255-0.077-0.346c0.033-0.127,0.121-0.228,0.236-0.274c3.449-1.465,5.288-4.407,4.914-7.867
			c-0.342-3.181-3.417-5.58-7.15-5.58c-1.104,0-2.188,0.211-3.222,0.628c-0.036,0.015-0.111,0.028-0.15,0.028
			c-0.057,0-0.168-0.032-0.216-0.062C0.065,37.856,0,37.732,0,37.6V27.28c0-0.097,0.088-0.269,0.167-0.324
			C0.234,26.906,0.315,26.88,0.4,26.88c0.032,0,0.097,0.01,0.126,0.021c1.103,0.369,2.216,0.557,3.311,0.557
			c4.148,0,7.178-2.7,7.204-6.419c0.02-2.932-1.601-5.249-4.952-7.086c-0.069-0.038-0.121-0.103-0.144-0.178
			c-0.207-0.685,0.395-1.189,0.976-1.678c0.195-0.164,0.371-0.312,0.518-0.459c0.471-0.47,0.955-0.976,1.451-1.495
			c1.289-1.346,2.619-2.736,3.984-3.815c0.053-0.042,0.181-0.086,0.248-0.086c0.187,0.027,0.286,0.098,0.345,0.196
			c1.628,2.807,3.424,4.189,5.824,4.485c0.338,0.042,0.667,0.062,0.986,0.062c2.054,0,3.83-0.863,5.003-2.433
			c1.475-1.97,1.854-4.841,1.019-7.679c-0.012-0.047-0.026-0.076-0.039-0.105c-0.034-0.079-0.078-0.182-0.095-0.315
			C26.152,0.366,26.203,0.2,26.26,0.135C26.336,0.049,26.446,0,26.56,0h11.28c0.099,0,0.271,0.091,0.329,0.172
			c0.075,0.111,0.091,0.248,0.045,0.37c-1.064,2.832-0.853,5.818,0.57,7.987c1.096,1.671,2.812,2.647,4.836,2.75
			c0.135,0.008,0.269,0.012,0.398,0.012c4.073,0,6.146-3.169,7.018-5.06c0.039-0.084,0.185-0.202,0.274-0.222
			c0.074,0,0.297,0.041,0.353,0.09c2.065,1.752,4.463,4.188,7.118,7.238c0.062,0.072,0.108,0.254,0.089,0.348
			c-0.021,0.112-0.103,0.217-0.212,0.272c-3.338,1.664-5.039,4.007-5.061,6.964c-0.011,1.748,0.596,3.289,1.754,4.456
			c1.333,1.341,3.27,2.08,5.451,2.08c1.094,0,2.206-0.188,3.308-0.558c0.031-0.011,0.097-0.021,0.128-0.021
			c0.063,0,0.184,0.039,0.234,0.076c0.104,0.071,0.165,0.193,0.165,0.323v10.08c0,0.101-0.093,0.275-0.176,0.331
			c-0.062,0.044-0.142,0.068-0.225,0.068c-0.036,0-0.11-0.014-0.146-0.026c-1.163-0.479-2.307-0.72-3.403-0.72
			c-2.893,0-5.427,1.761-6.456,4.486c-1.034,2.744-0.271,5.687,1.99,7.68c0.479,0.422,0.989,0.701,1.581,1.024
			c0.289,0.156,0.574,0.312,0.878,0.491c0.047,0.027,0.085,0.067,0.11,0.115c0.317,0.589-0.213,1.08-0.497,1.344l-0.14,0.133
			c-1.854,1.896-4.604,4.604-6.732,6.492c-0.055,0.05-0.192,0.101-0.266,0.101c-0.032,0-0.084-0.007-0.114-0.019
			c-0.085-0.013-0.191-0.095-0.247-0.208c-1.607-3.391-3.95-5.131-6.963-5.175h-0.108c-2.112,0-3.924,0.918-5.101,2.583
			c-1.527,2.16-1.814,5.212-0.77,8.164c0.032,0.092,0.006,0.284-0.051,0.364c-0.074,0.104-0.196,0.169-0.326,0.169l-0.732,0.004
			C36.747,64.764,36.747,64.764,36.746,64.764z M32.086,19.76c-4.328,0.097-7.132,2.013-8.724,3.603
			c-1.805,1.807-3.73,5.139-3.723,9.077c0.017,7.522,5.821,12.087,11.274,12.562c0.396,0.034,0.793,0.052,1.185,0.052
			c6.741,0,12.408-5.027,12.902-11.445c0.291-3.782-0.856-7.279-3.232-9.846c-2.355-2.545-5.772-4.005-9.376-4.006L32.086,19.76z"/>
	</g>
</g>
</svg>
