<?xml version="1.0" encoding="utf-8"?>
<!-- Generator: Adobe Illustrator 15.0.2, SVG Export Plug-In . SVG Version: 6.00 Build 0)  -->
<!DOCTYPE svg PUBLIC "-//W3C//DTD SVG 1.1//EN" "http://www.w3.org/Graphics/SVG/1.1/DTD/svg11.dtd">
<svg version="1.1" id="Layer_1" xmlns="http://www.w3.org/2000/svg" xmlns:xlink="http://www.w3.org/1999/xlink" x="0px" y="0px"
	 width="292.811px" height="292.809px" viewBox="0 0 292.811 292.809" enable-background="new 0 0 292.811 292.809"
	 xml:space="preserve">
<g>
	<g>
		<g>
			<path fill-rule="evenodd" clip-rule="evenodd" fill="#F26A5F" d="M218.392,3.638c0.125-0.022,0.542,0.28,0.929,0.672
				l70.203,71.214c0.387,0.392,0.382,1.028-0.01,1.414l-70.018,69.024c-0.392,0.386-0.396,1.022-0.01,1.415l69.36,70.359
				c0.386,0.392,0.382,1.027-0.01,1.414l-71.385,70.371c-0.392,0.387-1.028,0.382-1.414-0.01l-69.192-70.188
				c-0.387-0.392-1.023-0.396-1.415-0.011l-70.36,69.021c-0.39,0.388-1.027,0.387-1.415-0.003L3.284,216.944
				c-0.384-0.394-0.377-1.032,0.014-1.418l70.189-69.193c0.392-0.386,0.396-1.022,0.01-1.414L4.642,75.072
				c-0.386-0.392-0.382-1.028,0.01-1.414L76.036,3.287c0.392-0.386,1.028-0.382,1.414,0.01l68.687,69.676
				c0.387,0.392,1.023,0.396,1.415,0.011l69.676-68.346C217.618,4.25,218.267,3.66,218.392,3.638z"/>
			<path fill="none" stroke="#EF4623" stroke-width="6" stroke-miterlimit="10" d="M218.392,3.638
				c0.125-0.022,0.542,0.28,0.929,0.672l70.203,71.214c0.387,0.392,0.382,1.028-0.01,1.414l-70.018,69.024
				c-0.392,0.386-0.396,1.022-0.01,1.415l69.36,70.359c0.386,0.392,0.382,1.027-0.01,1.414l-71.385,70.371
				c-0.392,0.387-1.028,0.382-1.414-0.01l-69.192-70.188c-0.387-0.392-1.023-0.396-1.415-0.011l-70.36,69.021
				c-0.39,0.388-1.027,0.387-1.415-0.003L3.284,216.944c-0.384-0.394-0.377-1.032,0.014-1.418l70.189-69.193
				c0.392-0.386,0.396-1.022,0.01-1.414L4.642,75.072c-0.386-0.392-0.382-1.028,0.01-1.414L76.036,3.287
				c0.392-0.386,1.028-0.382,1.414,0.01l68.687,69.676c0.387,0.392,1.023,0.396,1.415,0.011l69.676-68.346
				C217.618,4.25,218.267,3.66,218.392,3.638z"/>
		</g>
	</g>
</g>
</svg>
